<?xml version="1.0" encoding="UTF-8"?>
<svg version="1.1" xmlns="http://www.w3.org/2000/svg" width="500" height="500">
<path d="M0 0 C1.44649429 0.00081573 1.44649429 0.00081573 2.92221069 0.00164795 C27.29625573 0.0646098 50.39041017 3.2422383 73.75 10.375 C74.68086426 10.65827148 75.61172852 10.94154297 76.57080078 11.23339844 C110.36350957 21.75185122 142.56468676 39.5138244 168.265625 64.0078125 C170.35037017 65.99422063 172.47421785 67.8491954 174.6875 69.6875 C195.82949725 88.16490668 211.76803754 112.72744718 224.75 137.375 C225.09240723 138.00970215 225.43481445 138.6444043 225.78759766 139.29833984 C237.6637591 161.53292356 245.04577927 187.5543364 248.75 212.375 C248.93111328 213.53725098 249.11222656 214.69950195 249.29882812 215.89697266 C250.89564089 227.14143265 251.14915801 238.27866674 251.125 249.625 C251.12418427 251.07149429 251.12418427 251.07149429 251.12335205 252.54721069 C251.0603902 276.92125573 247.8827617 300.01541017 240.75 323.375 C240.32509277 324.77129639 240.32509277 324.77129639 239.89160156 326.19580078 C229.37314878 359.98850957 211.6111756 392.18968676 187.1171875 417.890625 C185.13077937 419.97537017 183.2758046 422.09921785 181.4375 424.3125 C162.96009332 445.45449725 138.39755282 461.39303754 113.75 474.375 C113.11529785 474.71740723 112.4805957 475.05981445 111.82666016 475.41259766 C89.59207644 487.2887591 63.5706636 494.67077927 38.75 498.375 C37.58774902 498.55611328 36.42549805 498.73722656 35.22802734 498.92382812 C23.98356735 500.52064089 12.84633326 500.77415801 1.5 500.75 C0.53567047 500.74945618 -0.42865906 500.74891235 -1.42221069 500.74835205 C-25.79625573 500.6853902 -48.89041017 497.5077617 -72.25 490.375 C-73.18086426 490.09172852 -74.11172852 489.80845703 -75.07080078 489.51660156 C-108.86350957 478.99814878 -141.06468676 461.2361756 -166.765625 436.7421875 C-168.85037017 434.75577937 -170.97421785 432.9008046 -173.1875 431.0625 C-194.32949725 412.58509332 -210.26803754 388.02255282 -223.25 363.375 C-223.59240723 362.74029785 -223.93481445 362.1055957 -224.28759766 361.45166016 C-236.1637591 339.21707644 -243.54577927 313.1956636 -247.25 288.375 C-247.43111328 287.21274902 -247.61222656 286.05049805 -247.79882812 284.85302734 C-249.39564089 273.60856735 -249.64915801 262.47133326 -249.625 251.125 C-249.62445618 250.16067047 -249.62391235 249.19634094 -249.62335205 248.20278931 C-249.5603902 223.82874427 -246.3827617 200.73458983 -239.25 177.375 C-238.96672852 176.44413574 -238.68345703 175.51327148 -238.39160156 174.55419922 C-227.87314878 140.76149043 -210.1111756 108.56031324 -185.6171875 82.859375 C-183.63077937 80.77462983 -181.7758046 78.65078215 -179.9375 76.4375 C-161.46009332 55.29550275 -136.89755282 39.35696246 -112.25 26.375 C-111.61529785 26.03259277 -110.9805957 25.69018555 -110.32666016 25.33740234 C-88.09207644 13.4612409 -62.0706636 6.07922073 -37.25 2.375 C-36.08774902 2.19388672 -34.92549805 2.01277344 -33.72802734 1.82617188 C-22.48356735 0.22935911 -11.34633326 -0.02415801 0 0 Z M-48.25 200.375 C-60.61698365 212.52201754 -68.37154534 229.58024787 -68.63061523 246.90112305 C-68.59167651 268.39021747 -62.75434218 285.67968733 -47.31640625 301.3359375 C-33.93429506 313.66794339 -15.49743952 321.00419006 2.7421875 320.29785156 C22.39659113 319.04661862 40.07964102 311.13232973 53.5 296.5 C67.78922098 279.25901506 71.21572205 260.12091722 69.75 238.375 C67.67449535 222.07649393 57.36122799 206.31592048 44.8671875 195.9609375 C15.69275341 174.10702562 -21.23694021 176.27863272 -48.25 200.375 Z M-207.25 262.375 C-206.43893556 277.08026355 -206.43893556 277.08026355 -204.1875 291.4375 C-203.96908447 292.49130859 -203.75066895 293.54511719 -203.52563477 294.63085938 C-197.61523353 321.80939734 -186.47942398 347.74685674 -170.25 370.375 C-169.83008789 370.96168457 -169.41017578 371.54836914 -168.97753906 372.15283203 C-163.40751732 379.83824454 -157.26717155 386.99145562 -150.70947266 393.84814453 C-149.72491573 394.87815775 -148.7455186 395.91312459 -147.77099609 396.95263672 C-110.91597368 436.16847907 -57.55615023 457.63613075 -4.2109375 459.3125 C39.71180749 460.14220947 85.17396732 447.66807371 120.75 421.375 C121.79929687 420.60800781 122.84859375 419.84101563 123.9296875 419.05078125 C131.08664572 413.73113486 137.78036226 407.99631355 144.22314453 401.83447266 C145.25315775 400.84991573 146.28812459 399.8705186 147.32763672 398.89599609 C182.20131736 366.12173435 205.03721164 318.07254007 208.75 270.375 C208.75 267.735 208.75 265.095 208.75 262.375 C173.77 262.375 138.79 262.375 102.75 262.375 C101.43 267.655 100.11 272.935 98.75 278.375 C89.91195052 306.06909747 72.91251579 327.24028919 47.50390625 341.15234375 C23.77754771 352.7933661 -5.02959554 355.72738853 -30.25 347.375 C-31.41402344 346.98957031 -32.57804688 346.60414063 -33.77734375 346.20703125 C-59.59488315 336.89825684 -79.54985292 318.48379213 -91.5625 294 C-95.98705287 283.85987741 -98.57454377 273.07682493 -101.25 262.375 C-136.23 262.375 -171.21 262.375 -207.25 262.375 Z " fill="#000000" transform="translate(249.25,-0.375)"/>
</svg>
